<svg width="32" height="32" viewBox="0 0 32 32" fill="none" xmlns="http://www.w3.org/2000/svg">
  <!-- Background -->
  <rect width="32" height="32" fill="#000000"/>

  <!-- Sun/Horizon -->
  <ellipse cx="16" cy="8" rx="8" ry="3" fill="#ff6b35"/>
  <ellipse cx="16" cy="7" rx="7" ry="2" fill="#ff8c42"/>
  <rect x="8" y="10" width="16" height="1" fill="#000000"/>
  <rect x="10" y="11" width="12" height="1" fill="#ff8c42"/>

  <!-- LaneLayer Text (simplified) -->
  <text x="16" y="18" font-family="Arial, sans-serif" font-size="7" font-weight="bold" text-anchor="middle" fill="#f4e4bc" stroke="#d2691e" stroke-width="0.3">LL</text>

  <!-- Perspective Grid/Lanes (simplified) -->
  <g transform="translate(16, 20)">
    <!-- Left lane -->
    <path d="M-8,0 L-4,8 L-3,9 L-7,1 Z" fill="#ff6b35"/>
    <path d="M-7,1 L-3,9 L-2,10 L-6,2 Z" fill="#ff8c42"/>

    <!-- Center lane -->
    <path d="M-4,8 L0,16 L1,17 L-3,9 Z" fill="#20b2aa"/>
    <path d="M-3,9 L1,17 L2,18 L-2,10 Z" fill="#40e0d0"/>

    <!-- Right lane -->
    <path d="M0,16 L4,24 L5,25 L1,17 Z" fill="#ff4500"/>
    <path d="M1,17 L5,25 L6,26 L2,18 Z" fill="#ff6347"/>

    <!-- Far right lane -->
    <path d="M4,24 L8,32 L9,33 L5,25 Z" fill="#4169e1"/>
    <path d="M5,25 L9,33 L10,34 L6,26 Z" fill="#6495ed"/>
  </g>
</svg>